<svg version="1.1" id="Layer_1" xmlns="http://www.w3.org/2000/svg" xmlns:xlink="http://www.w3.org/1999/xlink" x="0px" y="0px"
	 width="100%" viewBox="0 0 480 480" enable-background="new 0 0 480 480" xml:space="preserve">
<path fill="#FFFFFE" opacity="1.000000" stroke="none" 
	d="
M278.000000,481.000000 
	C185.333328,481.000000 93.166664,481.000000 1.000000,481.000000 
	C1.000000,321.000000 1.000000,161.000000 1.000000,1.000000 
	C161.000000,1.000000 321.000000,1.000000 481.000000,1.000000 
	C481.000000,161.000000 481.000000,321.000000 481.000000,481.000000 
	C413.500000,481.000000 346.000000,481.000000 278.000000,481.000000 
M184.195038,231.027267 
	C182.802856,231.249496 181.410675,231.471741 179.499237,231.478058 
	C179.005554,231.689941 178.511871,231.901840 177.194046,232.058182 
	C176.138214,232.308060 175.082382,232.557938 173.526917,232.567932 
	C173.037567,232.767838 172.548233,232.967743 171.224869,233.123306 
	C170.156784,233.376129 169.088699,233.628952 167.532928,233.628952 
	C167.037216,233.796127 166.541519,233.963318 165.109482,234.061890 
	C155.842163,235.271332 147.210526,233.301498 139.163666,228.702301 
	C135.713837,226.730576 133.584610,227.298828 131.688614,231.015488 
	C126.771286,240.654816 121.523705,250.126099 116.383125,259.651062 
	C106.418358,278.114777 96.384964,296.541901 86.560638,315.079926 
	C85.782181,316.548859 85.720367,319.156464 86.522423,320.542023 
	C88.067970,323.211945 90.525284,325.341034 92.505783,327.774780 
	C97.085945,333.403107 101.607193,339.079376 106.525322,345.200439 
	C113.141563,337.765015 119.257278,331.005981 129.530350,331.722412 
	C139.748627,332.434967 146.068832,338.582611 150.402374,347.004059 
	C170.765991,340.420868 180.291824,346.239227 184.753754,367.487915 
	C201.138550,370.698151 206.002182,376.092224 207.739944,393.268097 
	C217.265244,393.923401 224.342468,398.257996 227.730682,407.655823 
	C231.279831,417.499969 226.245193,424.959778 219.950684,432.664520 
	C223.964233,434.707092 227.191971,436.817505 230.726028,438.048431 
	C237.534317,440.419769 245.216049,437.261902 248.852066,431.091370 
	C251.612457,426.406830 250.771439,422.188995 246.385193,419.039124 
	C243.274261,416.805084 240.001526,414.780060 237.018463,412.390289 
	C235.227371,410.955414 233.854126,408.998962 232.293106,407.276917 
	C232.744583,406.624481 233.196075,405.972076 233.647552,405.319672 
	C236.510773,406.710663 239.521408,407.865295 242.207077,409.540863 
	C248.139252,413.241974 253.804108,417.375488 259.772552,421.013489 
	C265.694885,424.623383 271.807190,424.745697 277.554321,420.472321 
	C285.103088,414.859375 284.964447,405.568268 277.385437,400.207184 
	C267.866211,393.473663 258.373474,386.702667 248.865616,379.953033 
	C247.260178,378.813324 245.382278,377.926086 244.107895,376.496399 
	C243.220993,375.501495 243.150955,373.778381 242.716019,372.380585 
	C244.063156,372.190002 245.687637,371.424011 246.706223,371.915009 
	C249.963699,373.485321 253.121872,375.341644 256.093353,377.410736 
	C266.343811,384.548462 276.453217,391.889130 286.722382,398.999329 
	C289.294189,400.780060 292.124237,402.414398 295.076782,403.373718 
	C302.286896,405.716278 309.818298,402.274567 313.173462,395.536804 
	C316.392731,389.071960 314.496002,383.450531 307.729980,378.489014 
	C294.163147,368.540314 280.620239,358.556183 267.240356,348.359772 
	C265.851318,347.301239 265.626953,344.714386 264.862183,342.836670 
	C266.924042,343.066101 269.458557,342.607269 270.966675,343.643005 
	C277.825897,348.353973 284.340546,353.562469 291.083557,358.447876 
	C301.193298,365.772461 311.132904,373.379120 321.636627,380.096893 
	C329.229553,384.953064 337.465424,382.772827 341.802551,376.059723 
	C346.218781,369.224121 344.503052,361.708527 337.200897,356.024628 
	C323.925873,345.691559 310.616486,335.402466 297.365936,325.038086 
	C277.818329,309.748230 258.337494,294.372894 238.765945,279.113831 
	C233.530701,275.032166 231.644394,275.292084 226.614182,279.743652 
	C222.123871,283.717438 217.640564,287.704407 213.028885,291.534729 
	C204.293594,298.789978 194.428131,303.309692 182.837494,302.769836 
	C172.461609,302.286530 163.875473,298.000000 159.408447,288.350159 
	C155.082718,279.005585 158.802414,270.909943 165.304184,263.745544 
	C171.773315,256.617096 178.114304,249.372360 185.083878,241.943481 
	C187.157471,239.671219 189.231079,237.398941 191.828415,234.863007 
	C192.575882,233.960800 193.323364,233.058609 194.579483,231.877350 
	C194.372360,231.397476 194.165237,230.917618 193.127548,230.301666 
	C191.757904,230.470444 190.388260,230.639206 188.371948,230.520233 
	C187.262115,230.717911 186.152267,230.915604 184.195038,231.027267 
M115.553253,205.518433 
	C110.522087,202.588501 105.521400,199.604584 100.452324,196.741760 
	C93.491302,192.810425 90.543625,193.630356 86.821449,200.644455 
	C74.812714,223.273788 62.870163,245.938232 50.881157,268.578064 
	C45.898285,277.987579 40.849411,287.362122 35.856102,296.766144 
	C33.170963,301.823151 33.542809,304.788574 37.585403,307.044220 
	C46.012817,311.746429 54.557877,316.238617 63.075535,320.777863 
	C67.118065,322.932190 70.091393,321.623596 72.161659,317.755554 
	C89.430786,285.490234 106.732506,253.242172 123.888878,220.916992 
	C125.136391,218.566483 125.321411,215.652069 125.962685,212.304993 
	C122.636673,210.216400 119.310669,208.127808 115.553253,205.518433 
M365.122192,198.030273 
	C358.592133,201.684784 352.019745,205.266220 345.545441,209.016983 
	C340.384308,212.006989 339.907562,213.868820 342.722565,219.129990 
	C360.146637,251.695267 377.583313,284.253815 395.040131,316.801575 
	C397.954254,322.234924 400.525452,323.141968 405.934387,320.377777 
	C413.784210,316.366150 421.568542,312.221283 429.304657,307.993835 
	C435.287720,304.724335 435.853760,302.473755 432.527771,296.325745 
	C428.807739,289.449432 425.000641,282.620239 421.278473,275.745087 
	C408.130981,251.460632 395.073761,227.126770 381.778473,202.923584 
	C380.147491,199.954544 377.283569,197.662781 374.473389,194.622391 
	C371.586426,195.720291 368.699493,196.818192 365.122192,198.030273 
M375.316650,305.093475 
	C374.595093,303.463074 373.981171,301.774506 373.135773,300.211029 
	C360.700256,277.213135 348.163849,254.269394 335.841614,231.211121 
	C333.705475,227.213867 331.564056,226.434402 327.585144,228.666534 
	C316.509735,234.879822 304.833221,235.537445 292.800110,231.751022 
	C287.243134,230.002426 281.695404,228.199707 276.069031,226.700897 
	C251.996231,220.288177 228.110931,220.274124 208.042664,236.499741 
	C194.448624,247.490799 183.256424,261.527466 171.456696,274.622498 
	C167.275330,279.262878 168.962311,286.037354 174.496231,289.186249 
	C177.397736,290.837250 181.014160,291.891754 184.346039,291.996429 
	C192.638535,292.257019 199.327957,287.961304 205.431580,282.902466 
	C211.197845,278.123199 216.613480,272.923065 222.327225,268.077667 
	C228.930237,262.478180 236.414856,262.327911 243.342148,267.536102 
	C246.800949,270.136536 250.099136,272.949554 253.499588,275.628815 
	C283.842133,299.536255 314.296783,323.303955 344.416595,347.488678 
	C348.586273,350.836700 351.371613,351.068146 355.070160,347.892975 
	C355.953217,347.134888 357.050354,346.586731 357.809540,345.729858 
	C364.963776,337.654846 372.066101,329.533813 379.869934,321.220337 
	C382.573883,320.196014 383.514099,318.564941 381.844574,315.877838 
	C379.758667,312.520477 377.752258,309.113739 375.316650,305.093475 
M387.777405,127.230980 
	C387.704041,125.798485 387.630707,124.365990 387.716522,122.019852 
	C387.725067,107.606316 387.756134,93.192711 387.710449,78.779343 
	C387.705383,77.182098 387.262115,75.586235 386.839020,73.266838 
	C384.909241,72.573883 383.005524,71.385849 381.044708,71.282661 
	C375.599335,70.996101 370.127899,71.056107 364.671143,71.176315 
	C359.101593,71.299019 353.537231,71.655975 347.409607,72.033653 
	C347.239502,72.492653 347.069366,72.951645 346.065308,73.746925 
	C345.875488,81.812798 345.685669,89.878677 345.217712,98.775932 
	C345.109650,101.217407 345.001556,103.658882 344.865387,106.734917 
	C342.866333,105.483490 341.327820,104.596169 339.867340,103.595001 
	C306.065063,80.423470 272.238708,57.286816 238.516861,33.998772 
	C234.255310,31.055763 230.752747,30.616285 226.304062,33.698307 
	C168.390350,73.820488 110.389603,113.817024 52.419292,153.857544 
	C37.754509,163.986603 23.150734,174.204361 8.448724,184.278915 
	C4.886035,186.720230 3.977470,189.144470 6.656947,192.937225 
	C10.787978,198.784607 14.599711,204.859833 18.476505,210.883698 
	C20.630472,214.230591 23.142660,214.804764 26.408155,212.423798 
	C29.907255,209.872543 33.477104,207.416351 37.052784,204.972366 
	C100.588829,161.545425 164.161575,118.171944 227.595444,74.596306 
	C231.496841,71.916245 233.968460,72.144257 237.630325,74.680122 
	C257.076813,88.146919 276.700195,101.358238 296.259125,114.662758 
	C343.646088,146.896698 391.027863,179.138351 438.422058,211.361679 
	C443.781036,215.005219 444.530182,215.022491 447.906097,209.692627 
	C452.194000,202.922928 456.060455,195.886292 460.505402,188.286377 
	C457.181732,185.525024 453.973572,182.451477 450.374329,179.937943 
	C432.072205,167.156693 413.811554,154.305130 395.211212,141.968536 
	C389.831818,138.400665 386.447601,134.722214 387.777405,127.230980 
M132.529709,385.302979 
	C130.156799,392.016205 131.744400,397.309509 137.058090,400.401367 
	C142.547760,403.595642 148.376328,402.245453 152.796997,396.560547 
	C158.821014,388.813782 164.841675,381.059967 170.657761,373.157532 
	C174.734146,367.618896 173.808578,361.162964 168.751450,357.216980 
	C163.623566,353.215820 156.480240,353.993866 152.325790,359.296143 
	C145.761642,367.673920 139.386368,376.199646 132.529709,385.302979 
M189.339600,379.734863 
	C184.701797,377.912933 180.222839,378.285797 176.982117,382.154388 
	C170.568100,389.811127 164.302017,397.616943 158.426346,405.689758 
	C155.092407,410.270416 156.994446,416.583069 161.960632,420.173096 
	C166.638901,423.554932 173.381943,422.923889 176.847397,418.556366 
	C182.437439,411.511292 187.957581,404.407318 193.358551,397.216522 
	C198.416061,390.483063 197.234879,384.731995 189.339600,379.734863 
M137.822998,361.090240 
	C141.549484,355.103149 140.901611,349.534454 136.013641,345.537781 
	C131.388153,341.755798 125.054634,341.324432 121.484573,345.339355 
	C116.854004,350.546936 112.508347,356.092377 108.708130,361.927460 
	C105.563179,366.756378 107.843758,373.444885 112.887779,376.707611 
	C117.921036,379.963379 123.808701,379.038849 127.561424,374.311920 
	C130.873962,370.139465 134.098679,365.897278 137.822998,361.090240 
M211.115891,404.117828 
	C207.076508,402.307007 202.876450,402.527130 200.021088,405.697968 
	C195.041519,411.227600 190.376297,417.122925 186.251526,423.312927 
	C183.091339,428.055389 185.186401,433.874878 190.237335,437.065308 
	C195.238907,440.224548 201.202057,439.562561 204.588425,435.280426 
	C208.292953,430.596008 211.950546,425.865295 215.416290,421.003418 
	C220.233856,414.245148 219.025452,409.056549 211.115891,404.117828 
z"/>
<path fill="#E29930" opacity="1.000000" stroke="none" 
	d="
M184.511475,242.178604 
	C178.114304,249.372360 171.773315,256.617096 165.304184,263.745544 
	C158.802414,270.909943 155.082718,279.005585 159.408447,288.350159 
	C163.875473,298.000000 172.461609,302.286530 182.837494,302.769836 
	C194.428131,303.309692 204.293594,298.789978 213.028885,291.534729 
	C217.640564,287.704407 222.123871,283.717438 226.614182,279.743652 
	C231.644394,275.292084 233.530701,275.032166 238.765945,279.113831 
	C258.337494,294.372894 277.818329,309.748230 297.365936,325.038086 
	C310.616486,335.402466 323.925873,345.691559 337.200897,356.024628 
	C344.503052,361.708527 346.218781,369.224121 341.802551,376.059723 
	C337.465424,382.772827 329.229553,384.953064 321.636627,380.096893 
	C311.132904,373.379120 301.193298,365.772461 291.083557,358.447876 
	C284.340546,353.562469 277.825897,348.353973 270.966675,343.643005 
	C269.458557,342.607269 266.924042,343.066101 264.862183,342.836670 
	C265.626953,344.714386 265.851318,347.301239 267.240356,348.359772 
	C280.620239,358.556183 294.163147,368.540314 307.729980,378.489014 
	C314.496002,383.450531 316.392731,389.071960 313.173462,395.536804 
	C309.818298,402.274567 302.286896,405.716278 295.076782,403.373718 
	C292.124237,402.414398 289.294189,400.780060 286.722382,398.999329 
	C276.453217,391.889130 266.343811,384.548462 256.093353,377.410736 
	C253.121872,375.341644 249.963699,373.485321 246.706223,371.915009 
	C245.687637,371.424011 244.063156,372.190002 242.716019,372.380585 
	C243.150955,373.778381 243.220993,375.501495 244.107895,376.496399 
	C245.382278,377.926086 247.260178,378.813324 248.865616,379.953033 
	C258.373474,386.702667 267.866211,393.473663 277.385437,400.207184 
	C284.964447,405.568268 285.103088,414.859375 277.554321,420.472321 
	C271.807190,424.745697 265.694885,424.623383 259.772552,421.013489 
	C253.804108,417.375488 248.139252,413.241974 242.207077,409.540863 
	C239.521408,407.865295 236.510773,406.710663 233.647552,405.319672 
	C233.196075,405.972076 232.744583,406.624481 232.293106,407.276917 
	C233.854126,408.998962 235.227371,410.955414 237.018463,412.390289 
	C240.001526,414.780060 243.274261,416.805084 246.385193,419.039124 
	C250.771439,422.188995 251.612457,426.406830 248.852066,431.091370 
	C245.216049,437.261902 237.534317,440.419769 230.726028,438.048431 
	C227.191971,436.817505 223.964233,434.707092 219.950684,432.664520 
	C226.245193,424.959778 231.279831,417.499969 227.730682,407.655823 
	C224.342468,398.257996 217.265244,393.923401 207.739944,393.268097 
	C206.002182,376.092224 201.138550,370.698151 184.753754,367.487915 
	C180.291824,346.239227 170.765991,340.420868 150.402374,347.004059 
	C146.068832,338.582611 139.748627,332.434967 129.530350,331.722412 
	C119.257278,331.005981 113.141563,337.765015 106.525322,345.200439 
	C101.607193,339.079376 97.085945,333.403107 92.505783,327.774780 
	C90.525284,325.341034 88.067970,323.211945 86.522423,320.542023 
	C85.720367,319.156464 85.782181,316.548859 86.560638,315.079926 
	C96.384964,296.541901 106.418358,278.114777 116.383125,259.651062 
	C121.523705,250.126099 126.771286,240.654816 131.688614,231.015488 
	C133.584610,227.298828 135.713837,226.730576 139.163666,228.702301 
	C147.210526,233.301498 155.842163,235.271332 165.703918,234.286835 
	C166.872452,234.301773 167.446533,234.091782 168.020615,233.881775 
	C169.088699,233.628952 170.156784,233.376129 171.775452,233.333511 
	C172.892883,233.298416 173.459717,233.053131 174.026566,232.807831 
	C175.082382,232.557938 176.138214,232.308060 177.591156,232.458542 
	C176.639664,238.492325 178.405441,241.015091 184.511475,242.178604 
z"/>
<path fill="#E2992F" opacity="1.000000" stroke="none" 
	d="
M346.899231,73.410637 
	C347.069366,72.951645 347.239502,72.492653 347.987366,72.268990 
	C355.317383,72.655296 362.072723,72.725372 368.820984,72.981270 
	C374.892029,73.211487 380.955353,73.645569 387.022095,73.989731 
	C387.262115,75.586235 387.705383,77.182098 387.710449,78.779343 
	C387.756134,93.192711 387.725067,107.606316 387.302673,122.515320 
	C383.218842,125.181274 384.968994,126.670982 387.522980,128.059723 
	C386.447601,134.722214 389.831818,138.400665 395.211212,141.968536 
	C413.811554,154.305130 432.072205,167.156693 450.374329,179.937943 
	C453.973572,182.451477 457.181732,185.525024 460.505402,188.286377 
	C456.060455,195.886292 452.194000,202.922928 447.906097,209.692627 
	C444.530182,215.022491 443.781036,215.005219 438.422058,211.361679 
	C391.027863,179.138351 343.646088,146.896698 296.259125,114.662758 
	C276.700195,101.358238 257.076813,88.146919 237.630325,74.680122 
	C233.968460,72.144257 231.496841,71.916245 227.595444,74.596306 
	C164.161575,118.171944 100.588829,161.545425 37.052784,204.972366 
	C33.477104,207.416351 29.907255,209.872543 26.408155,212.423798 
	C23.142660,214.804764 20.630472,214.230591 18.476505,210.883698 
	C14.599711,204.859833 10.787978,198.784607 6.656947,192.937225 
	C3.977470,189.144470 4.886035,186.720230 8.448724,184.278915 
	C23.150734,174.204361 37.754509,163.986603 52.419292,153.857544 
	C110.389603,113.817024 168.390350,73.820488 226.304062,33.698307 
	C230.752747,30.616285 234.255310,31.055763 238.516861,33.998772 
	C272.238708,57.286816 306.065063,80.423470 339.867340,103.595001 
	C341.327820,104.596169 342.866333,105.483490 344.865387,106.734917 
	C345.001556,103.658882 345.109650,101.217407 345.702393,98.220490 
	C346.424438,89.580246 346.661835,81.495438 346.899231,73.410637 
z"/>
<path fill="#E29930" opacity="1.000000" stroke="none" 
	d="
M379.183411,321.426086 
	C372.066101,329.533813 364.963776,337.654846 357.809540,345.729858 
	C357.050354,346.586731 355.953217,347.134888 355.070160,347.892975 
	C351.371613,351.068146 348.586273,350.836700 344.416595,347.488678 
	C314.296783,323.303955 283.842133,299.536255 253.499588,275.628815 
	C250.099136,272.949554 246.800949,270.136536 243.342148,267.536102 
	C236.414856,262.327911 228.930237,262.478180 222.327225,268.077667 
	C216.613480,272.923065 211.197845,278.123199 205.431580,282.902466 
	C199.327957,287.961304 192.638535,292.257019 184.346039,291.996429 
	C181.014160,291.891754 177.397736,290.837250 174.496231,289.186249 
	C168.962311,286.037354 167.275330,279.262878 171.456696,274.622498 
	C183.256424,261.527466 194.448624,247.490799 208.042664,236.499741 
	C228.110931,220.274124 251.996231,220.288177 276.069031,226.700897 
	C281.695404,228.199707 287.243134,230.002426 292.800110,231.751022 
	C304.833221,235.537445 316.509735,234.879822 327.585144,228.666534 
	C331.564056,226.434402 333.705475,227.213867 335.841614,231.211121 
	C348.163849,254.269394 360.700256,277.213135 373.135773,300.211029 
	C373.981171,301.774506 374.595093,303.463074 375.117737,305.565979 
	C371.894196,308.547394 372.136292,311.515320 375.122467,313.275055 
	C378.552643,315.296417 379.258087,318.002655 379.183411,321.426086 
z"/>
<path fill="#E29930" opacity="1.000000" stroke="none" 
	d="
M374.991028,195.057144 
	C377.283569,197.662781 380.147491,199.954544 381.778473,202.923584 
	C395.073761,227.126770 408.130981,251.460632 421.278473,275.745087 
	C425.000641,282.620239 428.807739,289.449432 432.527771,296.325745 
	C435.853760,302.473755 435.287720,304.724335 429.304657,307.993835 
	C421.568542,312.221283 413.784210,316.366150 405.934387,320.377777 
	C400.525452,323.141968 397.954254,322.234924 395.040131,316.801575 
	C377.583313,284.253815 360.146637,251.695267 342.722565,219.129990 
	C339.907562,213.868820 340.384308,212.006989 345.545441,209.016983 
	C352.019745,205.266220 358.592133,201.684784 365.864319,198.009308 
	C367.375366,198.180847 368.207977,198.244095 368.902863,198.586685 
	C373.627136,200.915771 374.556610,200.392792 374.991028,195.057144 
z"/>
<path fill="#E1982F" opacity="1.000000" stroke="none" 
	d="
M126.000420,212.999832 
	C125.321411,215.652069 125.136391,218.566483 123.888878,220.916992 
	C106.732506,253.242172 89.430786,285.490234 72.161659,317.755554 
	C70.091393,321.623596 67.118065,322.932190 63.075535,320.777863 
	C54.557877,316.238617 46.012817,311.746429 37.585403,307.044220 
	C33.542809,304.788574 33.170963,301.823151 35.856102,296.766144 
	C40.849411,287.362122 45.898285,277.987579 50.881157,268.578064 
	C62.870163,245.938232 74.812714,223.273788 86.821449,200.644455 
	C90.543625,193.630356 93.491302,192.810425 100.452324,196.741760 
	C105.521400,199.604584 110.522087,202.588501 115.771988,206.159027 
	C117.719055,209.363571 119.155594,212.207870 121.266113,214.404648 
	C123.019562,216.229721 124.945099,215.285416 126.000420,212.999832 
z"/>
<path fill="#E39B33" opacity="1.000000" stroke="none" 
	d="
M132.730438,384.982849 
	C139.386368,376.199646 145.761642,367.673920 152.325790,359.296143 
	C156.480240,353.993866 163.623566,353.215820 168.751450,357.216980 
	C173.808578,361.162964 174.734146,367.618896 170.657761,373.157532 
	C164.841675,381.059967 158.821014,388.813782 152.796997,396.560547 
	C148.376328,402.245453 142.547760,403.595642 137.058090,400.401367 
	C131.744400,397.309509 130.156799,392.016205 132.730438,384.982849 
z"/>
<path fill="#E29A32" opacity="1.000000" stroke="none" 
	d="
M189.704178,379.890259 
	C197.234879,384.731995 198.416061,390.483063 193.358551,397.216522 
	C187.957581,404.407318 182.437439,411.511292 176.847397,418.556366 
	C173.381943,422.923889 166.638901,423.554932 161.960632,420.173096 
	C156.994446,416.583069 155.092407,410.270416 158.426346,405.689758 
	C164.302017,397.616943 170.568100,389.811127 176.982117,382.154388 
	C180.222839,378.285797 184.701797,377.912933 189.704178,379.890259 
z"/>
<path fill="#E39B34" opacity="1.000000" stroke="none" 
	d="
M137.592575,361.388062 
	C134.098679,365.897278 130.873962,370.139465 127.561424,374.311920 
	C123.808701,379.038849 117.921036,379.963379 112.887779,376.707611 
	C107.843758,373.444885 105.563179,366.756378 108.708130,361.927460 
	C112.508347,356.092377 116.854004,350.546936 121.484573,345.339355 
	C125.054634,341.324432 131.388153,341.755798 136.013641,345.537781 
	C140.901611,349.534454 141.549484,355.103149 137.592575,361.388062 
z"/>
<path fill="#E29A33" opacity="1.000000" stroke="none" 
	d="
M211.464523,404.285034 
	C219.025452,409.056549 220.233856,414.245148 215.416290,421.003418 
	C211.950546,425.865295 208.292953,430.596008 204.588425,435.280426 
	C201.202057,439.562561 195.238907,440.224548 190.237335,437.065308 
	C185.186401,433.874878 183.091339,428.055389 186.251526,423.312927 
	C190.376297,417.122925 195.041519,411.227600 200.021088,405.697968 
	C202.876450,402.527130 207.076508,402.307007 211.464523,404.285034 
z"/>
<path fill="#E4A13E" opacity="1.000000" stroke="none" 
	d="
M184.797668,242.061035 
	C178.405441,241.015091 176.639664,238.492325 178.003235,232.486313 
	C178.511871,231.901840 179.005554,231.689941 179.760040,231.930237 
	C181.047974,233.197968 181.990585,234.543182 183.119125,234.723267 
	C185.800812,235.151169 188.570541,235.027481 191.304688,235.126678 
	C189.231079,237.398941 187.157471,239.671219 184.797668,242.061035 
z"/>
<path fill="#E4A84B" opacity="1.000000" stroke="none" 
	d="
M386.930542,73.628281 
	C380.955353,73.645569 374.892029,73.211487 368.820984,72.981270 
	C362.072723,72.725372 355.317383,72.655296 348.267853,72.207352 
	C353.537231,71.655975 359.101593,71.299019 364.671143,71.176315 
	C370.127899,71.056107 375.599335,70.996101 381.044708,71.282661 
	C383.005524,71.385849 384.909241,72.573883 386.930542,73.628281 
z"/>
<path fill="#E7A543" opacity="1.000000" stroke="none" 
	d="
M379.526672,321.323212 
	C379.258087,318.002655 378.552643,315.296417 375.122467,313.275055 
	C372.136292,311.515320 371.894196,308.547394 375.315186,305.883423 
	C377.752258,309.113739 379.758667,312.520477 381.844574,315.877838 
	C383.514099,318.564941 382.573883,320.196014 379.526672,321.323212 
z"/>
<path fill="#E5A13C" opacity="1.000000" stroke="none" 
	d="
M125.981552,212.652405 
	C124.945099,215.285416 123.019562,216.229721 121.266113,214.404648 
	C119.155594,212.207870 117.719055,209.363571 115.987701,206.419418 
	C119.310669,208.127808 122.636673,210.216400 125.981552,212.652405 
z"/>
<path fill="#E29930" opacity="1.000000" stroke="none" 
	d="
M191.566559,234.994843 
	C188.570541,235.027481 185.800812,235.151169 183.119125,234.723267 
	C181.990585,234.543182 181.047974,233.197968 180.019669,232.038177 
	C181.410675,231.471741 182.802856,231.249496 184.817383,231.303528 
	C186.632675,231.322525 187.825653,231.065247 189.018616,230.807968 
	C190.388260,230.639206 191.757904,230.470444 193.552582,230.656372 
	C194.008682,231.392853 194.039764,231.774628 194.070831,232.156418 
	C193.323364,233.058609 192.575882,233.960800 191.566559,234.994843 
z"/>
<path fill="#E28E1C" opacity="1.000000" stroke="none" 
	d="
M346.482300,73.578781 
	C346.661835,81.495438 346.424438,89.580246 345.841431,97.804794 
	C345.685669,89.878677 345.875488,81.812798 346.482300,73.578781 
z"/>
<path fill="#E6A241" opacity="1.000000" stroke="none" 
	d="
M374.732208,194.839767 
	C374.556610,200.392792 373.627136,200.915771 368.902863,198.586685 
	C368.207977,198.244095 367.375366,198.180847 366.209534,197.952240 
	C368.699493,196.818192 371.586426,195.720291 374.732208,194.839767 
z"/>
<path fill="#E4A84B" opacity="1.000000" stroke="none" 
	d="
M387.650208,127.645355 
	C384.968994,126.670982 383.218842,125.181274 387.223083,122.972137 
	C387.630707,124.365990 387.704041,125.798485 387.650208,127.645355 
z"/>
<path fill="#E4A13E" opacity="1.000000" stroke="none" 
	d="
M188.695282,230.664093 
	C187.825653,231.065247 186.632675,231.322525 185.241074,231.346558 
	C186.152267,230.915604 187.262115,230.717911 188.695282,230.664093 
z"/>
<path fill="#E4A13E" opacity="1.000000" stroke="none" 
	d="
M173.776733,232.687881 
	C173.459717,233.053131 172.892883,233.298416 172.192459,233.355682 
	C172.548233,232.967743 173.037567,232.767838 173.776733,232.687881 
z"/>
<path fill="#E4A13E" opacity="1.000000" stroke="none" 
	d="
M167.776764,233.755371 
	C167.446533,234.091782 166.872452,234.301773 166.172089,234.321136 
	C166.541519,233.963318 167.037216,233.796127 167.776764,233.755371 
z"/>
<path fill="#E4A13E" opacity="1.000000" stroke="none" 
	d="
M194.325165,232.016876 
	C194.039764,231.774628 194.008682,231.392853 193.967865,230.724396 
	C194.165237,230.917618 194.372360,231.397476 194.325165,232.016876 
z"/>
</svg>